<svg width="56" height="56" viewBox="0 0 56 56" fill="none" xmlns="http://www.w3.org/2000/svg">
<rect x="0.5" y="0.5" width="55" height="55" rx="7.5" fill="white" fill-opacity="0.1"/>
<rect x="0.5" y="0.5" width="55" height="55" rx="7.5" stroke="#CFB70B"/>
<path d="M22.7633 27.2751L33.9093 16.6551C34.0953 16.4778 34.3424 16.3789 34.5993 16.3789C34.8563 16.3789 35.1033 16.4778 35.2893 16.6551L35.3013 16.6671C35.3918 16.753 35.4638 16.8565 35.5131 16.9712C35.5623 17.0858 35.5877 17.2093 35.5877 17.3341C35.5877 17.4589 35.5623 17.5824 35.5131 17.697C35.4638 17.8117 35.3918 17.9152 35.3013 18.0011L24.8053 28.0011L35.3013 37.9971C35.3918 38.083 35.4638 38.1865 35.5131 38.3012C35.5623 38.4158 35.5877 38.5393 35.5877 38.6641C35.5877 38.7889 35.5623 38.9124 35.5131 39.027C35.4638 39.1417 35.3918 39.2452 35.3013 39.3311L35.2893 39.3431C35.1033 39.5204 34.8563 39.6193 34.5993 39.6193C34.3424 39.6193 34.0953 39.5204 33.9093 39.3431L22.7633 28.7231C22.6653 28.6297 22.5873 28.5174 22.5339 28.3929C22.4806 28.2685 22.4531 28.1345 22.4531 27.9991C22.4531 27.8637 22.4806 27.7297 22.5339 27.6053C22.5873 27.4808 22.6653 27.3685 22.7633 27.2751Z" fill="#CFB70B"/>
</svg>
