<svg width="16" height="17" viewBox="0 0 16 17" fill="none" xmlns="http://www.w3.org/2000/svg">
<path d="M14 3.5C14 3.23478 13.8946 2.98043 13.7071 2.79289C13.5196 2.60536 13.2652 2.5 13 2.5H11V1.5H10V2.5H6V1.5H5V2.5H3C2.73478 2.5 2.48043 2.60536 2.29289 2.79289C2.10536 2.98043 2 3.23478 2 3.5V13.5C2 13.7652 2.10536 14.0196 2.29289 14.2071C2.48043 14.3946 2.73478 14.5 3 14.5H5V13.5H3V3.5H5V4.5H6V3.5H10V4.5H11V3.5H13V6.5H14V3.5Z" fill="black" fill-opacity="0.5"/>
<path d="M10.5 8L11.7745 10.469L14.5 10.8645L12.5 12.7865L13 15.5L10.5 14.219L8 15.5L8.5 12.7865L6.5 10.8645L9.3 10.469L10.5 8Z" fill="black" fill-opacity="0.5"/>
</svg>
