<svg width="16" height="13" viewBox="0 0 16 13" fill="none" xmlns="http://www.w3.org/2000/svg">
<path d="M7.9987 4.8335C11.6806 4.8335 14.6654 3.93807 14.6654 2.8335C14.6654 1.72893 11.6806 0.833496 7.9987 0.833496C4.3168 0.833496 1.33203 1.72893 1.33203 2.8335C1.33203 3.93807 4.3168 4.8335 7.9987 4.8335Z" stroke="#88898C" stroke-width="1.5" stroke-linecap="round" stroke-linejoin="round"/>
<path d="M7.99837 10.1668C8.88504 10.1668 9.38037 10.6722 9.61104 11.1108C9.6646 11.2152 9.67865 11.3354 9.6506 11.4494C9.62255 11.5633 9.55428 11.6632 9.45837 11.7308C9.02617 12.0187 8.51766 12.1706 7.99837 12.1668C7.44637 12.1668 6.93837 12.0035 6.53837 11.7302C6.44247 11.6626 6.3742 11.5626 6.34615 11.4487C6.31809 11.3348 6.33214 11.2146 6.38571 11.1102C6.61637 10.6735 7.11171 10.1668 7.99837 10.1668ZM7.99837 10.1668V4.8335" stroke="#88898C" stroke-width="1.5" stroke-linecap="round" stroke-linejoin="round"/>
</svg>
