<svg width="14" height="13" viewBox="0 0 14 13" fill="none" xmlns="http://www.w3.org/2000/svg">
<path d="M1.66797 10.4997C1.66797 9.79243 1.94892 9.11415 2.44902 8.61406C2.94911 8.11396 3.62739 7.83301 4.33464 7.83301H9.66797C10.3752 7.83301 11.0535 8.11396 11.5536 8.61406C12.0537 9.11415 12.3346 9.79243 12.3346 10.4997C12.3346 10.8533 12.1942 11.1924 11.9441 11.4425C11.6941 11.6925 11.3549 11.833 11.0013 11.833H3.0013C2.64768 11.833 2.30854 11.6925 2.05849 11.4425C1.80844 11.1924 1.66797 10.8533 1.66797 10.4997Z" stroke="white" stroke-opacity="0.5" stroke-width="1.5" stroke-linejoin="round"/>
<path d="M7 5.1665C8.10457 5.1665 9 4.27107 9 3.1665C9 2.06193 8.10457 1.1665 7 1.1665C5.89543 1.1665 5 2.06193 5 3.1665C5 4.27107 5.89543 5.1665 7 5.1665Z" stroke="white" stroke-opacity="0.5" stroke-width="1.5"/>
</svg>
