<svg width="12" height="11" viewBox="0 0 12 11" fill="none" xmlns="http://www.w3.org/2000/svg">
<path d="M1.7453 10.8332C1.43819 10.8332 1.18197 10.7305 0.976635 10.5252C0.771302 10.3198 0.668413 10.0634 0.667969 9.75584V1.24384C0.667969 0.936726 0.770858 0.680504 0.976635 0.47517C1.18241 0.269837 1.43864 0.166948 1.7453 0.166504H6.01397V0.833171H1.7453C1.64264 0.833171 1.54841 0.875837 1.46264 0.961171C1.37686 1.0465 1.33419 1.14073 1.33464 1.24384V9.7565C1.33464 9.85873 1.3773 9.95273 1.46264 10.0385C1.54797 10.1243 1.64197 10.1669 1.74464 10.1665H6.01397V10.8332H1.7453ZM8.97597 7.85917L8.50797 7.37917L10.054 5.83317H4.1293V5.1665H10.054L8.5073 3.61984L8.9753 3.14117L11.3346 5.49984L8.97597 7.85917Z" fill="white" fill-opacity="0.8"/>
</svg>
