<svg width="68" height="74" viewBox="0 0 68 74" fill="none" xmlns="http://www.w3.org/2000/svg">
<path d="M33.9993 0.666992C52.4093 0.666992 67.3327 15.5903 67.3327 34.0003C67.3327 52.4103 52.4093 67.3337 33.9993 67.3337C15.5893 67.3337 0.666016 52.4103 0.666016 34.0003C0.666016 15.5903 15.5893 0.666992 33.9993 0.666992ZM33.9993 14.0003C33.1829 14.0004 32.3949 14.3002 31.7848 14.8427C31.1747 15.3852 30.7849 16.1328 30.6893 16.9437L30.666 17.3337V20.667H24.3327L23.9327 20.687C23.1027 20.7777 22.3286 21.1489 21.7383 21.7392C21.1479 22.3296 20.7767 23.1037 20.686 23.9337L20.666 24.3337V43.667L20.686 44.067C20.7767 44.8969 21.1479 45.6711 21.7383 46.2614C22.3286 46.8518 23.1027 47.223 23.9327 47.3137L24.3327 47.3337H30.666V50.667L30.6893 51.057C30.7857 51.8672 31.1759 52.6138 31.7859 53.1556C32.3959 53.6974 33.1835 53.9966 33.9993 53.9966C34.8152 53.9966 35.6028 53.6974 36.2128 53.1556C36.8228 52.6138 37.213 51.8672 37.3093 51.057L37.3327 50.667V47.3337H42.3327L42.8793 47.317C44.3775 47.2187 45.8212 46.7174 47.058 45.8663C48.2948 45.0151 49.2786 43.8456 49.9056 42.4814C50.5325 41.1172 50.7793 39.609 50.6198 38.1161C50.4602 36.6233 49.9004 35.2012 48.9993 34.0003C49.9004 32.7994 50.4602 31.3774 50.6198 29.8845C50.7793 28.3916 50.5325 26.8834 49.9056 25.5192C49.2786 24.155 48.2948 22.9855 47.058 22.1344C45.8212 21.2832 44.3775 20.782 42.8793 20.6837L42.3327 20.667H37.3327V17.3337L37.3093 16.9437C37.2138 16.1328 36.824 15.3852 36.2139 14.8427C35.6038 14.3002 34.8158 14.0004 33.9993 14.0003ZM42.3327 37.3337C42.7492 37.3329 43.1508 37.4881 43.4586 37.7687C43.7664 38.0493 43.958 38.4349 43.9956 38.8497C44.0332 39.2645 43.9142 39.6784 43.6619 40.0098C43.4097 40.3412 43.0425 40.5661 42.6327 40.6403L42.3327 40.667H27.3327V37.3337H42.3327ZM42.3327 27.3337C42.7492 27.3329 43.1508 27.4881 43.4586 27.7687C43.7664 28.0493 43.958 28.4349 43.9956 28.8497C44.0332 29.2645 43.9142 29.6784 43.6619 30.0098C43.4097 30.3412 43.0425 30.5661 42.6327 30.6403L42.3327 30.667H27.3327V27.3337H42.3327Z" fill="black"/>
</svg>
