<svg width="14" height="15" viewBox="0 0 14 15" fill="none" xmlns="http://www.w3.org/2000/svg">
<path d="M13.4492 9.27647L12.4258 8.40146C12.4742 8.10459 12.4992 7.80146 12.4992 7.49834C12.4992 7.19521 12.4742 6.89209 12.4258 6.59521L13.4492 5.72021C13.5264 5.65413 13.5817 5.56611 13.6076 5.46787C13.6336 5.36962 13.629 5.2658 13.5945 5.17021L13.5805 5.12959C13.2987 4.34212 12.8768 3.61214 12.3352 2.9749L12.307 2.94209C12.2413 2.86483 12.1537 2.80929 12.0558 2.78279C11.9579 2.75629 11.8543 2.76008 11.7586 2.79365L10.4883 3.24521C10.0195 2.86084 9.4961 2.55771 8.93047 2.34521L8.68516 1.01709C8.66665 0.917156 8.61817 0.825219 8.54617 0.753493C8.47416 0.681767 8.38204 0.633647 8.28203 0.615527L8.23985 0.607715C7.42578 0.46084 6.56953 0.46084 5.75547 0.607715L5.71328 0.615527C5.61328 0.633647 5.52115 0.681767 5.44915 0.753493C5.37714 0.825219 5.32867 0.917156 5.31016 1.01709L5.06328 2.35146C4.50218 2.56402 3.97965 2.86698 3.51641 3.24834L2.23672 2.79365C2.14104 2.75981 2.03733 2.75589 1.93937 2.7824C1.84141 2.80892 1.75383 2.86461 1.68828 2.94209L1.66016 2.9749C1.11913 3.61259 0.697303 4.34246 0.414847 5.12959L0.400784 5.17021C0.330472 5.36553 0.388284 5.58428 0.546097 5.72021L1.58203 6.60459C1.5336 6.89834 1.51016 7.19834 1.51016 7.49678C1.51016 7.79678 1.5336 8.09678 1.58203 8.38897L0.546097 9.27334C0.468903 9.33942 0.413654 9.42744 0.387697 9.52569C0.36174 9.62393 0.366305 9.72775 0.400784 9.82334L0.414847 9.86397C0.697659 10.6515 1.11641 11.378 1.66016 12.0187L1.68828 12.0515C1.75399 12.1287 1.84157 12.1843 1.93948 12.2108C2.03738 12.2373 2.14101 12.2335 2.23672 12.1999L3.51641 11.7452C3.98203 12.128 4.50235 12.4312 5.06328 12.6421L5.31016 13.9765C5.32867 14.0764 5.37714 14.1683 5.44915 14.2401C5.52115 14.3118 5.61328 14.3599 5.71328 14.378L5.75547 14.3858C6.57701 14.5335 7.4183 14.5335 8.23985 14.3858L8.28203 14.378C8.38204 14.3599 8.47416 14.3118 8.54617 14.2401C8.61817 14.1683 8.66665 14.0764 8.68516 13.9765L8.93047 12.6483C9.49587 12.4364 10.0223 12.1323 10.4883 11.7483L11.7586 12.1999C11.8543 12.2337 11.958 12.2377 12.0559 12.2112C12.1539 12.1846 12.2415 12.1289 12.307 12.0515L12.3352 12.0187C12.8789 11.3765 13.2977 10.6515 13.5805 9.86397L13.5945 9.82334C13.6648 9.63115 13.607 9.4124 13.4492 9.27647ZM11.3164 6.77959C11.3555 7.01553 11.3758 7.25771 11.3758 7.4999C11.3758 7.74209 11.3555 7.98428 11.3164 8.22021L11.2133 8.84678L12.3805 9.84521C12.2035 10.2529 11.9802 10.6387 11.7148 10.9952L10.2648 10.4812L9.77422 10.8843C9.40078 11.1905 8.98516 11.4312 8.53516 11.5999L7.93985 11.8233L7.66016 13.339C7.21886 13.389 6.77333 13.389 6.33203 13.339L6.05235 11.8202L5.46172 11.5937C5.01641 11.4249 4.60235 11.1843 4.23203 10.8796L3.74141 10.4749L2.28203 10.9937C2.01641 10.6358 1.79453 10.2499 1.61641 9.84365L2.7961 8.83584L2.69453 8.21084C2.65703 7.97803 2.63672 7.7374 2.63672 7.4999C2.63672 7.26084 2.65547 7.02178 2.69453 6.78896L2.7961 6.16396L1.61641 5.15615C1.79297 4.74834 2.01641 4.36396 2.28203 4.00615L3.74141 4.5249L4.23203 4.12021C4.60235 3.81553 5.01641 3.5749 5.46172 3.40615L6.05391 3.18271L6.3336 1.66396C6.77266 1.61396 7.2211 1.61396 7.66172 1.66396L7.94141 3.17959L8.53672 3.40303C8.98516 3.57178 9.40235 3.8124 9.77578 4.11865L10.2664 4.52178L11.7164 4.00771C11.982 4.36553 12.2039 4.75146 12.382 5.15771L11.2148 6.15615L11.3164 6.77959ZM6.99922 4.59365C5.48047 4.59365 4.24922 5.8249 4.24922 7.34365C4.24922 8.8624 5.48047 10.0937 6.99922 10.0937C8.51797 10.0937 9.74922 8.8624 9.74922 7.34365C9.74922 5.8249 8.51797 4.59365 6.99922 4.59365ZM8.23672 8.58115C8.07441 8.74393 7.88152 8.87301 7.66914 8.96096C7.45676 9.04892 7.22909 9.09401 6.99922 9.09365C6.53203 9.09365 6.09297 8.91084 5.76172 8.58115C5.59895 8.41884 5.46987 8.22595 5.38191 8.01357C5.29396 7.8012 5.24886 7.57352 5.24922 7.34365C5.24922 6.87646 5.43203 6.4374 5.76172 6.10615C6.09297 5.7749 6.53203 5.59365 6.99922 5.59365C7.46641 5.59365 7.90547 5.7749 8.23672 6.10615C8.3995 6.26846 8.52858 6.46135 8.61653 6.67373C8.70448 6.88611 8.74958 7.11378 8.74922 7.34365C8.74922 7.81084 8.56641 8.2499 8.23672 8.58115Z" fill="white" fill-opacity="0.5"/>
</svg>
