<svg width="13" height="13" viewBox="0 0 13 13" fill="none" xmlns="http://www.w3.org/2000/svg">
<path fill-rule="evenodd" clip-rule="evenodd" d="M0.667969 6.83401C0.667965 5.93278 0.870984 5.04312 1.26195 4.23111C1.65291 3.4191 2.22178 2.70559 2.9263 2.14358C3.63083 1.58156 4.45291 1.18547 5.33149 0.984725C6.21008 0.78398 7.12261 0.783735 8.0013 0.984008V5.50068H12.518C12.7056 6.32409 12.7173 7.17785 12.5524 8.0061C12.3874 8.83436 12.0494 9.61845 11.5605 10.3071C11.0716 10.9957 10.4429 11.5734 9.71541 12.0024C8.98792 12.4313 8.17807 12.7019 7.33884 12.7963C6.49961 12.8907 5.64989 12.8069 4.84528 12.5504C4.04066 12.2938 3.29926 11.8703 2.66958 11.3075C2.03991 10.7447 1.53613 10.0553 1.19121 9.28443C0.846284 8.51355 0.667983 7.67854 0.667969 6.83401ZM11.204 6.83401H6.66797V2.29801C5.77083 2.29801 4.89384 2.56404 4.1479 3.06246C3.40196 3.56088 2.82057 4.26931 2.47725 5.09816C2.13393 5.927 2.0441 6.83904 2.21913 7.71894C2.39415 8.59884 2.82616 9.40707 3.46053 10.0414C4.0949 10.6758 4.90314 11.1078 5.78304 11.2829C6.66294 11.4579 7.57498 11.368 8.40382 11.0247C9.23267 10.6814 9.94109 10.1 10.4395 9.35407C10.9379 8.60813 11.204 7.73114 11.204 6.83401Z" fill="white" fill-opacity="0.5"/>
</svg>
