<svg width="12" height="13" viewBox="0 0 12 13" fill="none" xmlns="http://www.w3.org/2000/svg">
<path d="M11 7.125H8.875V4.875H10C10.2321 4.875 10.4546 4.78281 10.6187 4.61872C10.7828 4.45462 10.875 4.23206 10.875 4V1C10.875 0.767936 10.7828 0.545376 10.6187 0.381282C10.4546 0.217187 10.2321 0.125 10 0.125H2C1.76794 0.125 1.54538 0.217187 1.38128 0.381282C1.21719 0.545376 1.125 0.767936 1.125 1V4C1.125 4.23206 1.21719 4.45462 1.38128 4.61872C1.54538 4.78281 1.76794 4.875 2 4.875H3.125V7.125H1C0.767936 7.125 0.545376 7.21719 0.381282 7.38128C0.217187 7.54538 0.125 7.76794 0.125 8V9C0.125 9.23206 0.217187 9.45462 0.381282 9.61872C0.545376 9.78281 0.767936 9.875 1 9.875H1.625V12.5C1.625 12.5995 1.66451 12.6948 1.73483 12.7652C1.80516 12.8355 1.90054 12.875 2 12.875C2.09946 12.875 2.19484 12.8355 2.26516 12.7652C2.33549 12.6948 2.375 12.5995 2.375 12.5V9.875H9.625V12.5C9.625 12.5995 9.66451 12.6948 9.73483 12.7652C9.80516 12.8355 9.90054 12.875 10 12.875C10.0995 12.875 10.1948 12.8355 10.2652 12.7652C10.3355 12.6948 10.375 12.5995 10.375 12.5V9.875H11C11.2321 9.875 11.4546 9.78281 11.6187 9.61872C11.7828 9.45462 11.875 9.23206 11.875 9V8C11.875 7.76794 11.7828 7.54538 11.6187 7.38128C11.4546 7.21719 11.2321 7.125 11 7.125ZM1.875 4V1C1.875 0.966848 1.88817 0.935054 1.91161 0.911612C1.93505 0.88817 1.96685 0.875 2 0.875H10C10.0332 0.875 10.0649 0.88817 10.0884 0.911612C10.1118 0.935054 10.125 0.966848 10.125 1V4C10.125 4.03315 10.1118 4.06495 10.0884 4.08839C10.0649 4.11183 10.0332 4.125 10 4.125H2C1.96685 4.125 1.93505 4.11183 1.91161 4.08839C1.88817 4.06495 1.875 4.03315 1.875 4ZM3.875 4.875H8.125V7.125H3.875V4.875ZM11.125 9C11.125 9.03315 11.1118 9.06495 11.0884 9.08839C11.0649 9.11183 11.0332 9.125 11 9.125H1C0.966848 9.125 0.935054 9.11183 0.911612 9.08839C0.88817 9.06495 0.875 9.03315 0.875 9V8C0.875 7.96685 0.88817 7.93505 0.911612 7.91161C0.935054 7.88817 0.966848 7.875 1 7.875H11C11.0332 7.875 11.0649 7.88817 11.0884 7.91161C11.1118 7.93505 11.125 7.96685 11.125 8V9Z" fill="white" fill-opacity="0.5"/>
</svg>
