<svg width="14" height="15" viewBox="0 0 14 15" fill="none" xmlns="http://www.w3.org/2000/svg">
<path d="M11.3346 11.4997C11.6883 11.4997 12.0274 11.6402 12.2774 11.8902C12.5275 12.1402 12.668 12.4794 12.668 12.833C12.668 13.1866 12.5275 13.5258 12.2774 13.7758C12.0274 14.0259 11.6883 14.1663 11.3346 14.1663C10.981 14.1663 10.6419 14.0259 10.3918 13.7758C10.1418 13.5258 10.0013 13.1866 10.0013 12.833C10.0013 12.093 10.5946 11.4997 11.3346 11.4997ZM0.667969 0.833008H2.84797L3.47464 2.16634H13.3346C13.5114 2.16634 13.681 2.23658 13.806 2.3616C13.9311 2.48663 14.0013 2.6562 14.0013 2.83301C14.0013 2.94634 13.968 3.05967 13.9213 3.16634L11.5346 7.47967C11.308 7.88634 10.868 8.16634 10.368 8.16634H5.4013L4.8013 9.25301L4.7813 9.33301C4.7813 9.37721 4.79886 9.4196 4.83012 9.45086C4.86137 9.48211 4.90377 9.49967 4.94797 9.49967H12.668V10.833H4.66797C4.31435 10.833 3.97521 10.6925 3.72516 10.4425C3.47511 10.1924 3.33464 9.8533 3.33464 9.49967C3.33464 9.26634 3.39464 9.04634 3.49464 8.85967L4.4013 7.22634L2.0013 2.16634H0.667969V0.833008ZM4.66797 11.4997C5.02159 11.4997 5.36073 11.6402 5.61078 11.8902C5.86083 12.1402 6.0013 12.4794 6.0013 12.833C6.0013 13.1866 5.86083 13.5258 5.61078 13.7758C5.36073 14.0259 5.02159 14.1663 4.66797 14.1663C4.31435 14.1663 3.97521 14.0259 3.72516 13.7758C3.47511 13.5258 3.33464 13.1866 3.33464 12.833C3.33464 12.093 3.92797 11.4997 4.66797 11.4997ZM10.668 6.83301L12.5213 3.49967H4.09464L5.66797 6.83301H10.668Z" fill="white" fill-opacity="0.5"/>
</svg>
