<svg width="16" height="11" viewBox="0 0 16 11" fill="none" xmlns="http://www.w3.org/2000/svg">
<path d="M0.667969 10.8332V8.96652C0.667969 8.58874 0.765302 8.24163 0.959969 7.92519C1.15464 7.60874 1.41286 7.36697 1.73464 7.19985C2.42352 6.85541 3.12352 6.59719 3.83464 6.42519C4.54575 6.25319 5.26797 6.16697 6.0013 6.16652C6.73464 6.16608 7.45686 6.2523 8.16797 6.42519C8.87908 6.59808 9.57908 6.8563 10.268 7.19985C10.5902 7.36652 10.8486 7.6083 11.0433 7.92519C11.238 8.24208 11.3351 8.58919 11.3346 8.96652V10.8332H0.667969ZM12.668 10.8332V8.83319C12.668 8.3443 12.532 7.87474 12.26 7.42452C11.988 6.9743 11.6017 6.5883 11.1013 6.26652C11.668 6.33319 12.2013 6.44719 12.7013 6.60852C13.2013 6.76985 13.668 6.96697 14.1013 7.19985C14.5013 7.42208 14.8069 7.66919 15.018 7.94119C15.2291 8.21319 15.3346 8.51052 15.3346 8.83319V10.8332H12.668ZM6.0013 5.49985C5.26797 5.49985 4.64019 5.23874 4.11797 4.71652C3.59575 4.1943 3.33464 3.56652 3.33464 2.83319C3.33464 2.09985 3.59575 1.47208 4.11797 0.949854C4.64019 0.427632 5.26797 0.166521 6.0013 0.166521C6.73464 0.166521 7.36241 0.427632 7.88464 0.949854C8.40686 1.47208 8.66797 2.09985 8.66797 2.83319C8.66797 3.56652 8.40686 4.1943 7.88464 4.71652C7.36241 5.23874 6.73464 5.49985 6.0013 5.49985ZM12.668 2.83319C12.668 3.56652 12.4069 4.1943 11.8846 4.71652C11.3624 5.23874 10.7346 5.49985 10.0013 5.49985C9.87908 5.49985 9.72353 5.48608 9.53464 5.45852C9.34575 5.43097 9.19019 5.4003 9.06797 5.36652C9.36797 5.01097 9.59864 4.61652 9.75997 4.18319C9.9213 3.74985 10.0017 3.29985 10.0013 2.83319C10.0009 2.36652 9.92041 1.91652 9.75997 1.48319C9.59952 1.04985 9.36886 0.65541 9.06797 0.299854C9.22353 0.244299 9.37908 0.208077 9.53464 0.191188C9.69019 0.174299 9.84575 0.166077 10.0013 0.166521C10.7346 0.166521 11.3624 0.427632 11.8846 0.949854C12.4069 1.47208 12.668 2.09985 12.668 2.83319ZM2.0013 9.49986H10.0013V8.96652C10.0013 8.8443 9.97086 8.73319 9.90997 8.63319C9.84908 8.53319 9.76841 8.45541 9.66797 8.39985C9.06797 8.09985 8.46241 7.87497 7.8513 7.72519C7.24019 7.57541 6.62352 7.5003 6.0013 7.49985C5.37908 7.49941 4.76241 7.57452 4.1513 7.72519C3.54019 7.87585 2.93464 8.10074 2.33464 8.39985C2.23464 8.45541 2.15397 8.53319 2.09264 8.63319C2.0313 8.73319 2.00086 8.8443 2.0013 8.96652V9.49986ZM6.0013 4.16652C6.36797 4.16652 6.68197 4.03608 6.9433 3.77519C7.20464 3.5143 7.33508 3.2003 7.33464 2.83319C7.33419 2.46608 7.20375 2.1523 6.9433 1.89185C6.68286 1.63141 6.36886 1.50074 6.0013 1.49985C5.63375 1.49897 5.31997 1.62963 5.05997 1.89185C4.79997 2.15408 4.6693 2.46785 4.66797 2.83319C4.66664 3.19852 4.7973 3.51252 5.05997 3.77519C5.32264 4.03785 5.63641 4.1683 6.0013 4.16652Z" fill="white" fill-opacity="0.5"/>
</svg>
