<svg width="16" height="15" viewBox="0 0 16 15" fill="none" xmlns="http://www.w3.org/2000/svg">
<path d="M11.439 4.06246C11.1791 3.8024 11.0268 3.45379 11.0128 3.08634C10.9988 2.71889 11.124 2.3597 11.3634 2.08058C11.3832 2.05737 11.3935 2.02753 11.3922 1.99705C11.3909 1.96656 11.3782 1.93769 11.3565 1.91621L9.97746 0.535585C9.95466 0.5128 9.92375 0.5 9.89152 0.5C9.85929 0.5 9.82838 0.5128 9.80558 0.535585L7.60746 2.73371C7.52634 2.81478 7.46524 2.91365 7.42902 3.02246C7.39292 3.13152 7.3319 3.23066 7.2508 3.31202C7.16971 3.39339 7.07077 3.45474 6.96183 3.49121C6.85296 3.52749 6.754 3.58858 6.67277 3.66965L1.03558 9.30558C1.0128 9.32838 1 9.35929 1 9.39152C1 9.42375 1.0128 9.45466 1.03558 9.47746L2.41465 10.8565C2.43613 10.8782 2.465 10.8909 2.49549 10.8922C2.52597 10.8935 2.55581 10.8832 2.57902 10.8634C2.85808 10.6237 3.21735 10.4983 3.58493 10.5123C3.9525 10.5262 4.30125 10.6785 4.56135 10.9386C4.82145 11.1987 4.97371 11.5474 4.98765 11.915C5.00159 12.2826 4.87618 12.6418 4.63652 12.9209C4.61672 12.9441 4.60643 12.9739 4.6077 13.0044C4.60898 13.0349 4.62173 13.0638 4.6434 13.0853L6.02246 14.4643C6.04526 14.4871 6.07617 14.4999 6.1084 14.4999C6.14063 14.4999 6.17154 14.4871 6.19433 14.4643L11.8318 8.82715C11.9129 8.74592 11.974 8.64696 12.0103 8.53808C12.0464 8.42903 12.1074 8.32989 12.1885 8.24852C12.2696 8.16715 12.3685 8.1058 12.4775 8.06933C12.5863 8.03312 12.6851 7.97202 12.7662 7.8909L14.9643 5.69277C14.9871 5.66998 14.9999 5.63906 14.9999 5.60683C14.9999 5.5746 14.9871 5.54369 14.9643 5.5209L13.5853 4.14183C13.5638 4.12017 13.5349 4.10742 13.5044 4.10614C13.4739 4.10487 13.4441 4.11516 13.4209 4.13496C13.1422 4.37476 12.7832 4.50052 12.4158 4.48708C12.0483 4.47363 11.6995 4.32199 11.439 4.06246Z" stroke="#88898C" stroke-miterlimit="10"/>
</svg>
