<svg width="14" height="14" viewBox="0 0 14 14" fill="none" xmlns="http://www.w3.org/2000/svg">
<path d="M6 11.8333L6.86667 12.4067C6.73333 12.02 6.66667 11.6 6.66667 11.1667C6.66667 11.0067 6.66667 10.8333 6.69333 10.6933L6 10.2333L4 11.5667L2 10.2333L1.33333 10.6733V1.83333H10.6667V7.16667C11.1333 7.16667 11.58 7.24667 12 7.39333V0.5H0V13.1667L2 11.8333L4 13.1667L6 11.8333ZM9.33333 4.5V3.16667H2.66667V4.5H9.33333ZM8 7.16667V5.83333H2.66667V7.16667H8ZM8.33333 11.1667L10.1667 13.1667L13.3333 9.98667L12.56 9.04667L10.1667 11.44L9.10667 10.38L8.33333 11.1667Z" fill="white" fill-opacity="0.5"/>
</svg>
