<svg width="80" height="80" viewBox="0 0 80 80" fill="none" xmlns="http://www.w3.org/2000/svg">
<path d="M70 15C70 13.6739 69.4732 12.4021 68.5355 11.4645C67.5979 10.5268 66.3261 10 65 10H55V5H50V10H30V5H25V10H15C13.6739 10 12.4021 10.5268 11.4645 11.4645C10.5268 12.4021 10 13.6739 10 15V65C10 66.3261 10.5268 67.5979 11.4645 68.5355C12.4021 69.4732 13.6739 70 15 70H25V65H15V15H25V20H30V15H50V20H55V15H65V30H70V15Z" fill="black"/>
<path fill-rule="evenodd" clip-rule="evenodd" d="M54 75C56.6264 75 59.2272 74.4827 61.6537 73.4776C64.0802 72.4725 66.285 70.9993 68.1421 69.1421C69.9993 67.285 71.4725 65.0802 72.4776 62.6537C73.4827 60.2272 74 57.6264 74 55C74 52.3736 73.4827 49.7728 72.4776 47.3463C71.4725 44.9198 69.9993 42.715 68.1421 40.8579C66.285 39.0007 64.0802 37.5275 61.6537 36.5224C59.2272 35.5173 56.6264 35 54 35C48.6957 35 43.6086 37.1071 39.8579 40.8579C36.1071 44.6086 34 49.6957 34 55C34 60.3043 36.1071 65.3914 39.8579 69.1421C43.6086 72.8929 48.6957 75 54 75ZM53.4844 63.0889L64.5956 49.7556L61.1822 46.9111L51.6267 58.3756L46.6822 53.4289L43.54 56.5711L50.2067 63.2378L51.9267 64.9578L53.4844 63.0889Z" fill="black"/>
</svg>
