<svg width="60" height="60" viewBox="0 0 60 60" fill="none" xmlns="http://www.w3.org/2000/svg">
<path d="M41.25 21.5743C40.225 21.5743 39.375 20.7243 39.375 19.6993V16.2493C39.375 13.6243 38.25 11.0743 36.3 9.29928C34.325 7.49928 31.775 6.67428 29.075 6.92428C24.575 7.34928 20.625 11.9493 20.625 16.7493V19.1743C20.625 20.1993 19.775 21.0493 18.75 21.0493C17.725 21.0493 16.875 20.1993 16.875 19.1743V16.7243C16.875 9.99928 22.3 3.79928 28.725 3.17428C32.475 2.82428 36.075 3.99928 38.825 6.52428C41.55 8.99928 43.125 12.5493 43.125 16.2493V19.6993C43.125 20.7243 42.275 21.5743 41.25 21.5743Z" fill="url(#paint0_linear_2153_162823)"/>
<path d="M37.4995 56.875H22.4995C10.9495 56.875 8.79955 51.5 8.24955 46.275L6.37455 31.3C6.09955 28.6 5.99955 24.725 8.62455 21.825C10.8745 19.325 14.5995 18.125 19.9995 18.125H39.9995C45.4245 18.125 49.1495 19.35 51.3745 21.825C53.9745 24.725 53.8995 28.6 53.6245 31.25L51.7495 46.275C51.1995 51.5 49.0495 56.875 37.4995 56.875ZM19.9995 21.875C15.7745 21.875 12.8745 22.7 11.3995 24.35C10.1745 25.7 9.77455 27.775 10.0995 30.875L11.9745 45.85C12.3995 49.85 13.4995 53.15 22.4995 53.15H37.4995C46.4995 53.15 47.5995 49.875 48.0245 45.9L49.8995 30.875C50.2245 27.825 49.8245 25.75 48.5995 24.375C47.1245 22.7 44.2245 21.875 39.9995 21.875H19.9995Z" fill="url(#paint1_linear_2153_162823)"/>
<path d="M38.5504 32.8745C37.1504 32.8745 36.0254 31.7495 36.0254 30.3745C36.0254 28.9995 37.1504 27.8745 38.5254 27.8745C39.9004 27.8745 41.0254 28.9995 41.0254 30.3745C41.0254 31.7495 39.9254 32.8745 38.5504 32.8745Z" fill="url(#paint2_linear_2153_162823)"/>
<path d="M21.0504 32.8745C19.6504 32.8745 18.5254 31.7495 18.5254 30.3745C18.5254 28.9995 19.6504 27.8745 21.0254 27.8745C22.4004 27.8745 23.5254 28.9995 23.5254 30.3745C23.5254 31.7495 22.4254 32.8745 21.0504 32.8745Z" fill="url(#paint3_linear_2153_162823)"/>
<defs>
<linearGradient id="paint0_linear_2153_162823" x1="16.875" y1="12.344" x2="43.125" y2="12.344" gradientUnits="userSpaceOnUse">
<stop stop-color="#00B4CC"/>
<stop offset="1" stop-color="#79AB08"/>
</linearGradient>
<linearGradient id="paint1_linear_2153_162823" x1="6.24023" y1="37.5" x2="53.755" y2="37.5" gradientUnits="userSpaceOnUse">
<stop stop-color="#00B4CC"/>
<stop offset="1" stop-color="#79AB08"/>
</linearGradient>
<linearGradient id="paint2_linear_2153_162823" x1="36.0254" y1="30.3745" x2="41.0254" y2="30.3745" gradientUnits="userSpaceOnUse">
<stop stop-color="#00B4CC"/>
<stop offset="1" stop-color="#79AB08"/>
</linearGradient>
<linearGradient id="paint3_linear_2153_162823" x1="18.5254" y1="30.3745" x2="23.5254" y2="30.3745" gradientUnits="userSpaceOnUse">
<stop stop-color="#00B4CC"/>
<stop offset="1" stop-color="#79AB08"/>
</linearGradient>
</defs>
</svg>
