<svg width="67" height="68" viewBox="0 0 67 68" fill="none" xmlns="http://www.w3.org/2000/svg">
<path d="M53.6673 54.0003C55.4354 54.0003 57.1311 54.7027 58.3814 55.9529C59.6316 57.2032 60.334 58.8989 60.334 60.667C60.334 62.4351 59.6316 64.1308 58.3814 65.381C57.1311 66.6313 55.4354 67.3337 53.6673 67.3337C51.8992 67.3337 50.2035 66.6313 48.9533 65.381C47.703 64.1308 47.0006 62.4351 47.0006 60.667C47.0006 56.967 49.9673 54.0003 53.6673 54.0003ZM0.333984 0.666992H11.234L14.3673 7.33366H63.6673C64.5514 7.33366 65.3992 7.68485 66.0243 8.30997C66.6495 8.93509 67.0006 9.78294 67.0006 10.667C67.0006 11.2337 66.834 11.8003 66.6006 12.3337L54.6673 33.9003C53.534 35.9337 51.334 37.3337 48.834 37.3337H24.0007L21.0007 42.767L20.9007 43.167C20.9007 43.388 20.9884 43.6 21.1447 43.7562C21.301 43.9125 21.513 44.0003 21.734 44.0003H60.334V50.667H20.334C18.5659 50.667 16.8702 49.9646 15.6199 48.7144C14.3697 47.4641 13.6673 45.7684 13.6673 44.0003C13.6673 42.8337 13.9673 41.7337 14.4673 40.8003L19.0007 32.6337L7.00065 7.33366H0.333984V0.666992ZM20.334 54.0003C22.1021 54.0003 23.7978 54.7027 25.048 55.9529C26.2983 57.2032 27.0007 58.8989 27.0007 60.667C27.0007 62.4351 26.2983 64.1308 25.048 65.381C23.7978 66.6313 22.1021 67.3337 20.334 67.3337C18.5659 67.3337 16.8702 66.6313 15.6199 65.381C14.3697 64.1308 13.6673 62.4351 13.6673 60.667C13.6673 56.967 16.634 54.0003 20.334 54.0003ZM50.334 30.667L59.6007 14.0003H17.4673L25.334 30.667H50.334Z" fill="black"/>
</svg>
