<svg width="32" height="33" viewBox="0 0 32 33" fill="none" xmlns="http://www.w3.org/2000/svg">
<path d="M14.1307 22.6327L23.5307 13.2327L21.6641 11.366L14.1307 18.8993L10.3307 15.0993L8.46406 16.966L14.1307 22.6327ZM15.9974 29.8327C14.153 29.8327 12.4196 29.4825 10.7974 28.782C9.17518 28.0816 7.76406 27.1318 6.56406 25.9327C5.36406 24.7336 4.41429 23.3225 3.71473 21.6993C3.01518 20.0762 2.66495 18.3429 2.66406 16.4993C2.66318 14.6558 3.0134 12.9225 3.71473 11.2993C4.41606 9.67624 5.36584 8.26513 6.56406 7.06602C7.76229 5.8669 9.1734 4.91713 10.7974 4.21668C12.4214 3.51624 14.1547 3.16602 15.9974 3.16602C17.8401 3.16602 19.5734 3.51624 21.1974 4.21668C22.8214 4.91713 24.2325 5.8669 25.4307 7.06602C26.629 8.26513 27.5792 9.67624 28.2814 11.2993C28.9836 12.9225 29.3334 14.6558 29.3307 16.4993C29.3281 18.3429 28.9778 20.0762 28.2801 21.6993C27.5823 23.3225 26.6325 24.7336 25.4307 25.9327C24.229 27.1318 22.8178 28.082 21.1974 28.7833C19.577 29.4847 17.8436 29.8345 15.9974 29.8327Z" fill="white"/>
<path d="M14.1307 22.6327L23.5307 13.2327L21.6641 11.366L14.1307 18.8993L10.3307 15.0993L8.46406 16.966L14.1307 22.6327ZM15.9974 29.8327C14.153 29.8327 12.4196 29.4825 10.7974 28.782C9.17518 28.0816 7.76406 27.1318 6.56406 25.9327C5.36406 24.7336 4.41429 23.3225 3.71473 21.6993C3.01518 20.0762 2.66495 18.3429 2.66406 16.4993C2.66318 14.6558 3.0134 12.9225 3.71473 11.2993C4.41606 9.67624 5.36584 8.26513 6.56406 7.06602C7.76229 5.8669 9.1734 4.91713 10.7974 4.21668C12.4214 3.51624 14.1547 3.16602 15.9974 3.16602C17.8401 3.16602 19.5734 3.51624 21.1974 4.21668C22.8214 4.91713 24.2325 5.8669 25.4307 7.06602C26.629 8.26513 27.5792 9.67624 28.2814 11.2993C28.9836 12.9225 29.3334 14.6558 29.3307 16.4993C29.3281 18.3429 28.9778 20.0762 28.2801 21.6993C27.5823 23.3225 26.6325 24.7336 25.4307 25.9327C24.229 27.1318 22.8178 28.082 21.1974 28.7833C19.577 29.4847 17.8436 29.8345 15.9974 29.8327Z" fill="black" fill-opacity="0.2"/>
</svg>
