<svg width="32" height="33" viewBox="0 0 32 33" fill="none" xmlns="http://www.w3.org/2000/svg">
<path d="M14.1327 22.6337L23.5327 13.2337L21.666 11.367L14.1327 18.9003L10.3327 15.1003L8.46602 16.967L14.1327 22.6337ZM15.9994 29.8337C14.1549 29.8337 12.4216 29.4834 10.7994 28.783C9.17713 28.0825 7.76602 27.1328 6.56602 25.9337C5.36602 24.7345 4.41624 23.3234 3.71668 21.7003C3.01713 20.0772 2.66691 18.3439 2.66602 16.5003C2.66513 14.6568 3.01535 12.9234 3.71668 11.3003C4.41802 9.67721 5.3678 8.2661 6.56602 7.06699C7.76424 5.86788 9.17535 4.9181 10.7994 4.21766C12.4234 3.51721 14.1567 3.16699 15.9994 3.16699C17.842 3.16699 19.5753 3.51721 21.1994 4.21766C22.8234 4.9181 24.2345 5.86788 25.4327 7.06699C26.6309 8.2661 27.5811 9.67721 28.2834 11.3003C28.9856 12.9234 29.3354 14.6568 29.3327 16.5003C29.33 18.3439 28.9798 20.0772 28.282 21.7003C27.5842 23.3234 26.6345 24.7345 25.4327 25.9337C24.2309 27.1328 22.8198 28.083 21.1994 28.7843C19.5789 29.4857 17.8456 29.8354 15.9994 29.8337Z" fill="#0B8600"/>
</svg>
