<svg width="80" height="80" viewBox="0 0 80 80" fill="none" xmlns="http://www.w3.org/2000/svg">
<path d="M39.9993 6.66699C58.4093 6.66699 73.3327 21.5903 73.3327 40.0003C73.3327 58.4103 58.4093 73.3337 39.9993 73.3337C21.5893 73.3337 6.66602 58.4103 6.66602 40.0003C6.66602 21.5903 21.5893 6.66699 39.9993 6.66699ZM39.9993 50.0003C39.1153 50.0003 38.2674 50.3515 37.6423 50.9766C37.0172 51.6018 36.666 52.4496 36.666 53.3337C36.666 54.2177 37.0172 55.0656 37.6423 55.6907C38.2674 56.3158 39.1153 56.667 39.9993 56.667C40.8834 56.667 41.7312 56.3158 42.3564 55.6907C42.9815 55.0656 43.3327 54.2177 43.3327 53.3337C43.3327 52.4496 42.9815 51.6018 42.3564 50.9766C41.7312 50.3515 40.8834 50.0003 39.9993 50.0003ZM39.9993 20.0003C39.1829 20.0004 38.3949 20.3002 37.7848 20.8427C37.1747 21.3852 36.7849 22.1328 36.6893 22.9437L36.666 23.3337V43.3337C36.667 44.1833 36.9923 45.0004 37.5755 45.6182C38.1587 46.236 38.9559 46.6078 39.804 46.6576C40.6521 46.7074 41.4873 46.4314 42.1388 45.8861C42.7903 45.3408 43.209 44.5673 43.3093 43.7237L43.3327 43.3337V23.3337C43.3327 22.4496 42.9815 21.6018 42.3564 20.9766C41.7312 20.3515 40.8834 20.0003 39.9993 20.0003Z" fill="black"/>
</svg>
