<svg width="16" height="16" viewBox="0 0 16 16" fill="none" xmlns="http://www.w3.org/2000/svg">
<g clip-path="url(#clip0_362_10456)">
<path d="M0.146809 10.3534L1.48281 11.6891C1.57657 11.7829 1.70373 11.8355 1.83631 11.8355C1.96889 11.8355 2.09605 11.7829 2.18981 11.6891C2.32875 11.5494 2.49402 11.4387 2.67605 11.3633C2.85809 11.2879 3.05328 11.2493 3.25031 11.2499C4.07756 11.2499 4.75031 11.9226 4.75031 12.7499C4.75079 12.947 4.7122 13.1422 4.63676 13.3243C4.56132 13.5063 4.45054 13.6717 4.31081 13.8106C4.21707 13.9044 4.16442 14.0316 4.16442 14.1641C4.16442 14.2967 4.21707 14.4239 4.31081 14.5176L5.64681 15.8534C5.74456 15.9511 5.87231 15.9999 6.00031 15.9999C6.12831 15.9999 6.25631 15.9511 6.35381 15.8534L15.8538 6.35339C15.9003 6.30703 15.9373 6.25194 15.9625 6.19128C15.9876 6.13062 16.0006 6.06558 16.0006 5.99989C16.0006 5.93421 15.9876 5.86917 15.9625 5.80851C15.9373 5.74785 15.9003 5.69275 15.8538 5.64639L14.5178 4.31064C14.424 4.21691 14.2969 4.16425 14.1643 4.16425C14.0317 4.16425 13.9046 4.21691 13.8108 4.31064C13.6719 4.45035 13.5066 4.56111 13.3246 4.63651C13.1425 4.71191 12.9473 4.75045 12.7503 4.74989C11.9231 4.74989 11.2503 4.07714 11.2503 3.24989C11.2503 2.84914 11.4066 2.47264 11.6898 2.18914C11.7835 2.09538 11.8362 1.96823 11.8362 1.83564C11.8362 1.70306 11.7835 1.57591 11.6898 1.48214L10.3538 0.146393C10.26 0.0526577 10.1329 0 10.0003 0C9.86773 0 9.74057 0.0526577 9.64681 0.146393L0.146809 9.64639C0.100276 9.69275 0.0633543 9.74784 0.0381614 9.80851C0.0129684 9.86917 0 9.93421 0 9.99989C0 10.0656 0.0129684 10.1306 0.0381614 10.1913C0.0633543 10.2519 0.100276 10.307 0.146809 10.3534ZM6.50031 4.70689L6.89681 5.10339C6.99431 5.20114 7.12231 5.24989 7.25031 5.24989C7.37831 5.24989 7.50631 5.20114 7.60381 5.10339C7.69754 5.00963 7.7502 4.88248 7.7502 4.74989C7.7502 4.61731 7.69754 4.49016 7.60381 4.39639L7.20731 3.99989L10.0003 1.20689L10.6643 1.87064C10.3931 2.27942 10.2491 2.75935 10.2503 3.24989C10.2503 4.62839 11.3718 5.74989 12.7503 5.74989C13.2408 5.75125 13.7206 5.60728 14.1293 5.33614L14.7931 5.99989L12.0003 8.79289L11.6038 8.39639C11.5577 8.34864 11.5025 8.31055 11.4415 8.28434C11.3805 8.25814 11.3149 8.24434 11.2485 8.24377C11.1821 8.24319 11.1163 8.25584 11.0548 8.28098C10.9934 8.30612 10.9376 8.34325 10.8906 8.3902C10.8437 8.43714 10.8065 8.49297 10.7814 8.55442C10.7563 8.61586 10.7436 8.6817 10.7442 8.74809C10.7448 8.81448 10.7586 8.88009 10.7848 8.9411C10.811 9.0021 10.8491 9.05727 10.8968 9.10339L11.2933 9.49989L6.00031 14.7929L5.33631 14.1291C5.60748 13.7204 5.75154 13.2404 5.75031 12.7499C5.75031 11.3714 4.62881 10.2499 3.25031 10.2499C2.75986 10.2485 2.28 10.3925 1.87131 10.6636L1.20756 9.99989L6.50031 4.70689Z" fill="#CFB70B"/>
<path d="M8.39483 6.60378C8.49233 6.70153 8.62033 6.75028 8.74833 6.75028C8.87633 6.75028 9.00433 6.70153 9.10183 6.60378C9.19557 6.51002 9.24822 6.38287 9.24822 6.25028C9.24822 6.1177 9.19557 5.99055 9.10183 5.89679L8.60183 5.39679C8.55571 5.34903 8.50054 5.31094 8.43953 5.28473C8.37853 5.25853 8.31292 5.24474 8.24653 5.24416C8.18014 5.24358 8.1143 5.25623 8.05286 5.28137C7.99141 5.30651 7.93558 5.34364 7.88863 5.39059C7.84169 5.43753 7.80456 5.49336 7.77942 5.55481C7.75428 5.61626 7.74163 5.6821 7.74221 5.74849C7.74278 5.81488 7.75658 5.88049 7.78278 5.94149C7.80899 6.00249 7.84708 6.05766 7.89483 6.10378L8.39483 6.60378ZM9.39483 7.60378L9.89483 8.10379C9.99233 8.20154 10.1203 8.25028 10.2483 8.25028C10.3763 8.25028 10.5043 8.20154 10.6018 8.10379C10.6956 8.01002 10.7482 7.88287 10.7482 7.75028C10.7482 7.6177 10.6956 7.49055 10.6018 7.39679L10.1018 6.89679C10.0557 6.84903 10.0005 6.81094 9.93953 6.78473C9.87853 6.75853 9.81292 6.74474 9.74653 6.74416C9.68014 6.74358 9.6143 6.75623 9.55286 6.78137C9.49141 6.80651 9.43558 6.84364 9.38863 6.89059C9.34169 6.93753 9.30456 6.99336 9.27942 7.05481C9.25428 7.11626 9.24163 7.1821 9.24221 7.24849C9.24278 7.31487 9.25658 7.38049 9.28278 7.44149C9.30899 7.50249 9.34708 7.55766 9.39483 7.60378Z" fill="#CFB70B"/>
</g>
<defs>
<clipPath id="clip0_362_10456">
<rect width="16" height="16" fill="white"/>
</clipPath>
</defs>
</svg>
