<svg width="16" height="17" viewBox="0 0 16 17" fill="none" xmlns="http://www.w3.org/2000/svg">
<path fill-rule="evenodd" clip-rule="evenodd" d="M15.1859 5.83366C15.2856 6.2711 15.3359 6.71834 15.3359 7.16699H9.33594V1.16699C10.6955 1.16699 12.0148 1.62873 13.0776 2.47657C14.1404 3.32441 14.8838 4.50808 15.1859 5.83366ZM13.8079 5.83366C13.5866 5.091 13.1837 4.41517 12.6357 3.8672C12.0878 3.31923 11.4119 2.91637 10.6693 2.69499V5.83366H13.8079Z" fill="white" fill-opacity="0.5"/>
<path fill-rule="evenodd" clip-rule="evenodd" d="M0.667969 9.83401C0.667965 8.93278 0.870984 8.04312 1.26195 7.23111C1.65291 6.4191 2.22178 5.70559 2.9263 5.14358C3.63083 4.58156 4.45291 4.18547 5.33149 3.98473C6.21008 3.78398 7.12261 3.78373 8.0013 3.98401V8.50068H12.518C12.7056 9.32409 12.7173 10.1778 12.5524 11.0061C12.3874 11.8344 12.0494 12.6185 11.5605 13.3071C11.0716 13.9957 10.4429 14.5734 9.71541 15.0024C8.98792 15.4313 8.17807 15.7019 7.33884 15.7963C6.49961 15.8907 5.64989 15.8069 4.84528 15.5504C4.04066 15.2938 3.29926 14.8703 2.66958 14.3075C2.03991 13.7447 1.53613 13.0553 1.19121 12.2844C0.846284 11.5136 0.667983 10.6785 0.667969 9.83401ZM11.204 9.83401H6.66797V5.29801C5.77083 5.29801 4.89384 5.56404 4.1479 6.06246C3.40196 6.56088 2.82057 7.26931 2.47725 8.09816C2.13393 8.927 2.0441 9.83904 2.21913 10.7189C2.39415 11.5988 2.82616 12.4071 3.46053 13.0414C4.0949 13.6758 4.90314 14.1078 5.78304 14.2829C6.66294 14.4579 7.57498 14.368 8.40382 14.0247C9.23267 13.6814 9.94109 13.1 10.4395 12.3541C10.9379 11.6081 11.204 10.7311 11.204 9.83401Z" fill="white" fill-opacity="0.5"/>
</svg>
