<svg width="80" height="80" viewBox="0 0 80 80" fill="none" xmlns="http://www.w3.org/2000/svg">
<path d="M70 15C70 13.6739 69.4732 12.4021 68.5355 11.4645C67.5979 10.5268 66.3261 10 65 10H55V5H50V10H30V5H25V10H15C13.6739 10 12.4021 10.5268 11.4645 11.4645C10.5268 12.4021 10 13.6739 10 15V65C10 66.3261 10.5268 67.5979 11.4645 68.5355C12.4021 69.4732 13.6739 70 15 70H25V65H15V15H25V20H30V15H50V20H55V15H65V30H70V15Z" fill="black"/>
<path d="M44.8 70L42 67.2L53.2 56L42 44.8L44.8 42L56 53.2L67.2 42L70 44.8L58.8 56L70 67.2L67.2 70L56 58.8L44.8 70Z" fill="black"/>
</svg>
