<svg width="80" height="80" viewBox="0 0 80 80" fill="none" xmlns="http://www.w3.org/2000/svg">
<g clip-path="url(#clip0_362_10147)">
<path d="M49.9987 73.3337V66.667H63.332V33.3337H16.6654V46.667H9.9987V20.0003C9.9987 18.167 10.652 16.5981 11.9587 15.2937C13.2654 13.9892 14.8343 13.3359 16.6654 13.3337H19.9987V6.66699H26.6654V13.3337H53.332V6.66699H59.9987V13.3337H63.332C65.1654 13.3337 66.7354 13.987 68.042 15.2937C69.3487 16.6003 70.0009 18.1692 69.9987 20.0003V66.667C69.9987 68.5003 69.3465 70.0703 68.042 71.377C66.7376 72.6837 65.1676 73.3359 63.332 73.3337H49.9987ZM26.6654 80.0003L21.9987 75.3337L30.582 66.667H3.33203V60.0003H30.582L21.9987 51.3337L26.6654 46.667L43.332 63.3337L26.6654 80.0003ZM16.6654 26.667H63.332V20.0003H16.6654V26.667Z" fill="black"/>
</g>
<defs>
<clipPath id="clip0_362_10147">
<rect width="80" height="80" fill="white"/>
</clipPath>
</defs>
</svg>
