<svg width="80" height="80" viewBox="0 0 80 80" fill="none" xmlns="http://www.w3.org/2000/svg">
<path d="M70 15C70 13.6739 69.4732 12.4021 68.5355 11.4645C67.5979 10.5268 66.3261 10 65 10H55V5H50V10H30V5H25V10H15C13.6739 10 12.4021 10.5268 11.4645 11.4645C10.5268 12.4021 10 13.6739 10 15V65C10 66.3261 10.5268 67.5979 11.4645 68.5355C12.4021 69.4732 13.6739 70 15 70H25V65H15V15H25V20H30V15H50V20H55V15H65V30H70V15Z" fill="black"/>
<g clip-path="url(#clip0_362_10153)">
<path d="M59.1818 63.3091L63.6182 65.8727L62.2545 68.2364L56.4545 64.8909V58.1818H59.1818V63.3091ZM71 63.6364C71 70.6727 65.3091 76.3636 58.2727 76.3636C51.2364 76.3636 45.5455 70.6727 45.5455 63.6364C45.5455 63.0182 45.6 62.4182 45.6909 61.8182H31V40H63.7273V52.1455C68.0182 54.2 71 58.5636 71 63.6364ZM46.7818 58.1818C47.1091 57.5273 47.4545 56.9091 47.8727 56.3091C47.7091 56.3636 47.5455 56.3636 47.3636 56.3636C44.3455 56.3636 41.9091 53.9273 41.9091 50.9091C41.9091 47.8909 44.3455 45.4545 47.3636 45.4545C50.3818 45.4545 52.8182 47.8909 52.8182 50.9091C52.8182 51.3636 52.7455 51.8182 52.6364 52.2364C54.3455 51.4 56.2545 50.9091 58.2727 50.9091C58.8909 50.9091 59.4909 50.9636 60.0909 51.0545V47.2727C59.1265 47.2727 58.2016 46.8896 57.5196 46.2077C56.8377 45.5257 56.4545 44.6008 56.4545 43.6364H38.2727C38.2727 45.6545 36.6545 47.2727 34.6364 47.2727V54.5455C35.6008 54.5455 36.5257 54.9286 37.2077 55.6105C37.8896 56.2925 38.2727 57.2174 38.2727 58.1818H46.7818ZM67.3636 63.6364C67.3636 58.6182 63.2909 54.5455 58.2727 54.5455C53.2545 54.5455 49.1818 58.6182 49.1818 63.6364C49.1818 68.6545 53.2545 72.7273 58.2727 72.7273C63.2909 72.7273 67.3636 68.6545 67.3636 63.6364Z" fill="black"/>
</g>
<defs>
<clipPath id="clip0_362_10153">
<rect width="40" height="36.3636" fill="white" transform="translate(31 40)"/>
</clipPath>
</defs>
</svg>
